<?xml version="1.0" encoding="utf-8"?>
<!-- Generator: Adobe Illustrator 27.8.1, SVG Export Plug-In . SVG Version: 6.00 Build 0)  -->
<svg version="1.1" id="Camada_1" xmlns="http://www.w3.org/2000/svg" xmlns:xlink="http://www.w3.org/1999/xlink" x="0px" y="0px"
	 viewBox="0 0 772 791" style="enable-background:new 0 0 772 791;" xml:space="preserve">
<style type="text/css">
	.st0{fill:none;stroke:#FFFFFF;stroke-width:4;stroke-linecap:round;stroke-linejoin:round;stroke-miterlimit:10;}
</style>
<path class="st0" d="M567.46,250.55c-41.84-54.78-107.82-90.13-182.08-90.13c-126.47,0-228.99,102.52-228.99,228.99
	c0,126.47,102.52,228.99,228.99,228.99c74.25,0,140.24-35.35,182.08-90.13"/>
<line class="st0" x1="385.38" y1="160.48" x2="385.38" y2="618.4"/>
<line class="st0" x1="385.38" y1="43.85" x2="385.38" y2="105.26"/>
<g>
	<line class="st0" x1="385.96" y1="34.91" x2="385.96" y2="34.48"/>
	<path class="st0" d="M385.96,34.91c97.96,0,186.64,39.7,250.83,103.89c4.52,4.52,13.98,14.12,25.06,27.82"/>
	<path class="st0" d="M110.1,166.62C176.76,84.7,265.09,55.68,280.23,50.93c23.72-7.45,59.95-16,105.73-16.02"/>
</g>
<path class="st0" d="M585.33,389.41l126.4,0.21c14.89,0,28.51,13.6,27.75,28.38c-0.17,3.37-0.01,0.22,0,0c0.18-6.4-0.22,7.03,0,0.48
	c-2.59,76.93-26.59,126.66-69.84,184.15c-64.72,86.06-167.7,141.72-283.68,141.72c-116.09,0-219.18-55.78-283.88-141.99
	c-43.13-57.44-69.2-128.42-70.76-205.4c-0.03-1.01-0.05-2-0.05-3.01c-0.02-0.38-0.02-0.75-0.02-1.13c0-0.62-0.02-1.23,0-1.85
	c-0.02-0.45-0.02-0.91-0.02-1.35c0-36.58,5.54-71.86,15.81-105.05c4.93-15.92,13.55-39.65,28.31-66.34"/>
</svg>
